<svg width="844" height="325" viewBox="0 0 844 325" fill="none" xmlns="http://www.w3.org/2000/svg">
    <path d="M71.1918 313.923L73.2762 221.509C73.3935 216.964 69.6859 212.011 64.9324 211.041C62.1971 210.476 55.0505 210.324 51.8603 211.113C46.9949 212.429 46.267 216.786 45.3537 220.851L43.2694 313.264C43.2694 313.264 48.4866 309.264 57.3074 309.341C66.4471 309.338 71.1918 313.923 71.1918 313.923Z" fill="#E7EFF2"/>
    <path d="M43.3186 314.832C43.3482 313.583 43.3515 312.227 43.3811 310.978C43.493 308.693 43.4722 306.327 43.584 304.041C43.7517 300.613 43.8132 297.211 43.9546 293.676C44.2101 286.952 44.3329 280.148 44.5883 273.424C44.9896 261.358 44.8856 227.627 45.2474 220.877C45.9392 209.529 69.004 208.341 72.5888 220.099C72.9846 221.243 72.5942 239.741 72.5569 244.154L72.1381 263.45C71.8508 272.327 71.4309 281.123 71.011 289.92C70.7884 294.04 70.6722 298.133 70.556 302.226C70.4135 306.212 70.5363 310.359 70.0484 314.318C69.8861 315.487 71.1589 316.527 72.2749 316.477C73.4699 316.353 74.7482 315.527 74.5914 314.437C74.1748 310.927 74.3963 307.259 74.4051 303.645C74.4139 300.03 74.529 296.389 74.6178 292.641C74.8217 285.252 75.0257 277.864 75.3359 270.449C75.7087 259.18 76.2679 247.752 75.8436 236.454L76.2844 219.072L77.5936 161.397C77.735 157.862 75.8297 154.72 73.0177 152.932C72.4608 152.505 71.9302 152.185 71.506 151.838C69.8878 150.771 68.0833 149.862 66.2251 149.193C62.6151 147.828 58.6049 147.126 54.7251 147.408C50.6063 147.636 46.8033 149.141 45.1468 152.938C45.013 153.31 44.7729 153.708 44.6655 154.186C43.5177 156.389 42.9805 158.78 42.656 161.118C42.2514 163.589 41.9532 166.033 41.894 168.532C41.5892 173.688 41.4971 178.791 41.325 184.027C41.007 194.605 40.7954 205.156 40.5575 215.602C40.0279 236.731 39.631 257.941 39.1014 279.071C38.7538 290.898 38.2999 302.752 38.1913 314.632C38.0773 317.822 43.311 317.995 43.3186 314.832Z" fill="#F6CF3C"/>
    <path d="M70.2921 203.055C69.9741 202.682 70.0279 202.443 69.6299 202.202C69.2056 201.856 68.7013 201.642 68.1707 201.322C67.2685 200.867 66.2599 200.439 65.2776 200.118C63.1804 199.395 60.8695 199.176 58.6111 199.17C56.4591 199.138 54.1733 199.477 52.0728 200.109C51.0094 200.372 49.9986 200.848 49.0942 201.298C48.2961 201.721 46.94 202.169 46.6988 203.019C46.5914 203.497 46.883 203.764 47.3609 203.871C48.1843 204.006 49.1161 203.211 49.8079 202.814C50.7123 202.365 51.6431 202.022 52.7065 201.759C54.5943 201.179 56.6674 200.892 58.6868 200.845C60.7061 200.797 62.6981 201.094 64.53 201.657C65.4859 201.873 66.4682 202.194 67.3704 202.648C67.8747 202.862 68.2464 202.996 68.7507 203.21C69.255 203.424 69.574 203.345 70.052 203.453C70.291 203.507 70.451 203.241 70.2921 203.055Z" fill="#E7EFF2"/>
    <path d="M72.4148 160.532C71.8589 159.654 70.9304 159.093 70.1082 158.506C69.047 157.865 67.8794 157.251 66.7382 156.743C64.3494 155.753 61.8005 155.029 59.2243 154.65C55.2403 154.055 50.3487 155.264 47.5521 158.101C46.5665 159.135 48.1572 160.548 49.0627 159.647C51.5667 156.995 55.7665 156.182 59.3788 156.644C61.7161 156.969 63.9196 157.666 66.1495 158.469C67.1581 158.897 68.1667 159.325 69.2015 159.859C70.1038 160.314 70.926 160.901 71.8819 161.116C72.2536 161.25 72.6263 160.932 72.4148 160.532Z" fill="#E7EFF2"/>
    <path d="M67.9844 223.382C67.8802 233.456 67.8561 243.397 67.7519 253.47C67.6148 266.149 67.0261 278.826 66.5437 291.477C66.2619 298.094 65.9538 304.606 65.7784 311.197C65.6962 312.233 67.3965 312.265 67.4787 311.228C67.88 299.162 68.255 286.989 68.5236 274.843C68.8186 262.803 69.2199 250.737 69.2758 238.643C69.2616 233.566 69.2473 228.489 68.7814 223.411C68.7562 222.853 67.9592 222.824 67.9844 223.382Z" fill="#D8E5E5"/>
    <path d="M63.3964 219.888C62.8581 222.731 63.1694 225.815 63.0828 228.659C63.1288 231.583 63.1486 234.4 63.0883 237.351C63.074 243.225 63.086 249.205 62.9654 255.106C62.8305 266.88 62.4829 278.707 61.8964 290.481C61.5083 297.125 61.2528 303.849 60.652 310.545C60.5961 311.688 62.5354 311.773 62.5913 310.63C63.6318 287.003 64.566 263.403 64.5968 239.8C64.5781 236.53 64.5332 233.155 64.5146 229.885C64.4959 226.616 64.77 223.161 64.007 220.076C64.0882 219.491 63.5038 219.41 63.3964 219.888Z" fill="#D8E5E5"/>
    <path d="M54.7883 219.759C54.5153 222.762 54.5877 225.792 54.5274 228.742C54.4671 231.693 54.4331 234.749 54.3727 237.7C54.1458 243.626 53.9188 249.553 53.4529 255.426C52.7337 267.119 51.6955 278.891 51.2152 290.639C50.9598 297.363 50.8106 304.06 50.7678 310.732C50.7119 311.875 52.625 311.853 52.5745 310.737C52.1251 298.881 52.9781 286.816 53.671 275.016C54.4702 263.19 55.4021 251.444 55.7497 239.617C55.8111 236.215 56.0051 232.893 55.9602 229.517C55.9416 226.248 56.003 222.846 55.5327 219.575C55.6401 219.097 54.8957 219.281 54.7883 219.759Z" fill="#D8E5E5"/>
    <path d="M59.8905 219.4C59.6175 222.403 59.6898 225.434 59.6295 228.384C59.5692 231.334 59.5352 234.391 59.4749 237.341C59.248 243.268 59.021 249.194 58.5551 255.067C57.8358 266.761 56.7976 278.533 56.3174 290.28C56.0619 297.004 55.9128 303.702 55.87 310.373C55.8141 311.516 57.7272 311.495 57.6767 310.378C57.2273 298.522 58.0802 286.457 58.7731 274.657C59.5724 262.831 60.5043 251.085 60.8518 239.258C60.9132 235.856 61.1073 232.534 61.0623 229.158C61.0437 225.889 61.1051 222.487 60.6348 219.216C60.6359 218.765 59.8916 218.949 59.8905 219.4Z" fill="#D8E5E5"/>
    <path d="M49.148 222.96C49.229 233.327 49.4965 243.534 49.1259 253.899C48.7257 265.514 47.8738 277.127 47.1546 288.82C46.6843 296.501 46.2139 304.181 45.6109 311.781C45.5287 312.818 47.3617 312.929 47.4176 311.786C48.0886 298.073 48.9986 284.413 49.8022 270.78C50.3592 260.255 50.9162 249.731 50.9151 239.232C50.9283 233.81 50.9151 228.281 49.9449 222.989C49.8134 222.457 49.1491 222.508 49.148 222.96Z" fill="#D8E5E5"/>
    <path d="M41.2874 184.5C41.7571 183.919 47.4483 181.322 54.5 180.5M77 188.5C71.0682 180.763 62.0122 179.624 54.5 180.5M54.5 0V180.5" stroke="#0D0842"/>
    <path d="M161.963 216.036C161.858 211.44 164.427 207.663 167.864 207.559L176.107 207.287C179.438 207.214 182.27 210.877 182.449 215.335L184.101 278.344L185.819 278.292C186.138 277.04 186.244 275.851 186.287 274.451L182.174 117.557C181.995 111.943 178.665 107.389 174.771 107.514L164.109 107.817C160.216 107.942 157.096 112.578 157.275 118.193L161.388 275.086C161.451 276.455 161.621 277.792 161.971 278.96L163.689 278.908L161.963 216.036Z" fill="#60C697"/>
    <path d="M162.059 216.354C161.954 211.759 164.522 207.982 167.959 207.877L176.202 207.605C179.534 207.533 182.365 211.196 182.545 215.653L184.207 278.313L186.488 278.208L183.815 178.604C183.636 172.99 180.306 168.435 176.413 168.561L165.751 168.863C161.857 168.989 158.737 173.625 158.916 179.239L161.589 278.843L163.87 278.738L162.059 216.354Z" fill="#60C697"/>
    <path d="M184.027 277.326L181.502 180.916C181.333 176.109 178.576 172.308 175.139 172.412L166.896 172.684C163.564 172.757 160.922 176.672 160.984 181.512L163.509 277.921C163.509 277.921 167.149 273.476 173.536 273.182C180.347 272.76 184.027 277.326 184.027 277.326Z" fill="#E7EFF2"/>
    <path d="M179.627 170.026C179.52 173.529 179.869 177.01 179.975 180.449C180.08 183.887 180.461 187.475 180.916 190.924C181.615 197.886 182.239 204.987 182.588 211.938C183.455 226.022 183.621 240.084 183.47 254.242C183.436 262.234 183.159 270.183 182.881 278.132C182.795 280.933 187.039 280.819 187.124 278.017C187.99 249.649 188.049 221.291 185.159 193.123C184.789 189.185 184.281 185.173 183.454 181.257C182.988 179.314 182.447 177.51 181.981 175.568C181.514 173.625 181.08 171.789 180.401 169.91C180.242 169.379 179.574 169.464 179.627 170.026Z" fill="#60C697"/>
    <path d="M158.878 112.739C159.271 112.505 159.557 112.304 159.982 112.177L159.95 112.071C159.557 112.304 159.165 112.537 158.878 112.739C158.804 112.877 158.772 112.77 158.878 112.739Z" fill="#F3B953"/>
    <path d="M160.215 110.256C158.327 111.284 157.181 113.247 156.904 115.412C156.511 117.959 156.33 120.442 156.149 122.926C155.703 128.38 155.394 133.91 155.191 139.407C154.881 150.72 155.133 161.981 155.491 173.209C155.775 184.576 156.377 195.847 156.523 207.14C156.701 218.538 157.091 229.873 157.757 241.356C158.127 247.608 158.422 253.997 159.036 260.29C159.29 263.453 159.682 266.69 159.936 269.853C160.222 273.122 160.433 276.529 161.249 279.639C161.843 282.006 165.089 281.265 165.196 278.919C165.387 276.086 165.017 273.305 164.784 270.598C164.519 267.786 164.393 265.048 164.234 262.203C163.843 256.653 163.452 251.102 163.166 245.519C162.49 234.386 162.026 223.189 161.805 212.035C161.617 200.987 161.216 190.002 160.921 178.986C160.489 167.895 160.088 156.91 160.112 145.798C160.124 139.664 160.38 133.572 160.742 127.449C160.902 124.509 161.274 121.506 161.508 118.428C161.572 117.484 161.604 116.433 161.699 115.595C161.869 114.618 161.689 113.631 162.379 112.846C163.546 111.34 161.817 109.429 160.215 110.256Z" fill="#60C697"/>
    <path d="M179.374 111.687C178.919 110.551 178.07 109.649 177.147 108.884C176.224 108.12 175.27 107.249 174.198 106.76C171.674 105.666 168.799 105.718 166.062 105.844C163.569 106.012 161.33 107.03 159.759 109.12C158.443 110.902 156.841 114.043 158.495 116.092C158.867 116.559 159.673 116.549 160.065 116.316C161.604 115.276 161.467 112.888 162.634 111.382C163.844 109.631 165.637 109.441 167.567 109.325C169.604 109.178 171.779 109.104 173.816 110.114C175.471 111.006 176.955 112.875 179.035 112.483C179.247 112.419 179.438 111.899 179.374 111.687Z" fill="#60C697"/>
    <path d="M170.856 109.497C172.84 108.787 175.216 110.157 176.468 111.633C178.09 113.576 178.493 116.462 178.694 119.063C179.265 125.601 179.518 132.234 179.878 138.835C180.554 152.282 180.879 165.718 180.993 179.218C181.056 182.901 181.013 186.615 181.076 190.298C181.054 192.155 181.138 193.981 181.117 195.838C181.159 196.751 181.233 197.77 181.381 198.651C181.562 199.638 182.06 200.529 182.272 201.623C182.452 202.61 184.033 202.483 184.235 201.613C184.436 200.743 184.776 199.947 184.978 199.077C185.179 198.207 185.212 197.156 185.169 196.243C185.191 194.386 185.106 192.56 185.128 190.703C185.097 187.127 184.96 183.582 184.961 180.111C184.793 172.99 184.656 165.975 184.382 158.885C184.182 151.658 183.876 144.462 183.538 137.16C183.401 133.615 183.158 130.102 182.914 126.589C182.735 123.289 182.555 119.988 182.057 116.783C181.559 113.577 180.467 110.318 177.975 108.173C175.546 106.241 172.512 105.762 169.965 107.681C169.074 108.18 169.689 109.846 170.856 109.497Z" fill="#60C697"/>
    <path d="M183.411 184.971C183.92 183.199 183.56 181.225 183.263 179.463C182.861 177.733 182.182 175.854 181.175 174.421C178.693 170.769 174.874 169.6 170.822 169.194C168.795 168.992 166.769 168.789 164.828 169.255C162.674 169.785 161.082 171.418 159.904 173.275C157.814 176.331 154.715 182.58 158.268 185.564C158.883 186.074 159.933 186.106 160.379 185.279C160.793 184.345 160.984 183.825 161.154 182.849C161.281 182.116 161.483 181.246 161.717 180.482C162.152 178.848 162.895 177.469 163.744 176.058C164.444 174.922 165.24 174.106 166.545 173.83C168.094 173.597 169.77 173.789 171.309 173.907C174.173 174.205 176.496 175.013 178.172 177.518C179.709 179.95 179.963 183.112 181.65 185.268C182.084 185.947 183.103 185.873 183.411 184.971Z" fill="#60C697"/>
    <path d="M179.13 163.351C179.268 162.268 179.385 160.729 178.748 159.763C179.003 159.456 179.152 159.18 179.025 158.755C178.314 156.77 176.299 156.217 174.527 155.707C172.649 155.229 170.761 155.1 168.83 155.216C167.006 155.3 164.756 155.511 163.186 156.445C161.011 157.675 162.018 160.265 162.485 162.207C162.739 163.056 163.662 163.821 164.574 163.779C166.611 163.631 168.818 163.664 170.812 163.761C172.807 163.857 175.045 163.996 176.986 164.687C177.782 165.027 178.96 164.327 179.13 163.351Z" fill="#E7EFF2"/>
    <path d="M164.564 112.423C163.938 113.42 164.033 114.895 163.927 116.084C163.884 117.485 163.81 118.78 163.873 120.149C163.862 122.813 163.914 125.689 164.359 128.332C164.72 130.306 167.542 129.692 167.563 127.834C167.574 125.171 167.129 122.528 166.928 119.927C166.791 118.696 166.727 117.327 166.59 116.096C166.484 114.971 166.421 113.602 165.859 112.498C165.562 111.893 164.862 111.871 164.564 112.423Z" fill="#E7EFF2"/>
    <path d="M169.572 112.542C168.308 116.044 168.594 120.469 169.219 124.099C169.399 125.086 169.972 125.84 170.99 125.766C171.797 125.756 172.699 124.908 172.656 123.995C172.434 122.095 172.18 120.089 172.064 118.157C171.947 116.226 171.831 114.294 171.396 112.458C171.11 111.503 169.911 111.746 169.572 112.542Z" fill="#E7EFF2"/>
    <path d="M174.303 112.512C173.709 114.773 174.048 117.447 174.047 119.761C174.047 120.918 174.184 122.149 174.216 123.412C174.247 124.675 174.247 125.832 174.841 127.042C175.308 127.827 176.602 127.902 177.016 126.969C177.472 125.791 177.398 124.772 177.399 123.615C177.367 122.352 177.335 121.089 177.166 119.752C176.923 117.396 177.04 114.7 176.16 112.535C175.736 111.505 174.579 111.504 174.303 112.512Z" fill="#E7EFF2"/>
    <path d="M175.54 179.927C175.444 183.079 175.761 186.454 175.909 189.648C176.025 192.737 176.247 195.793 176.363 198.882C176.627 205.165 177.029 211.522 177.293 217.805C177.895 230.233 177.934 242.714 178.292 255.099C178.46 262.221 178.597 269.236 178.627 276.283C178.648 277.896 181.067 277.866 181.046 276.252C180.868 263.697 180.553 251.068 179.993 238.395C179.73 232.112 179.328 225.755 179.064 219.472C178.8 213.189 178.536 206.906 178.135 200.549C177.891 197.036 177.648 193.523 177.405 190.01C177.194 186.603 177.056 183.058 176.527 179.747C176.442 179.078 175.487 179.364 175.54 179.927Z" fill="#D8E5E5"/>
    <path d="M171.467 175.595C172.363 201.353 173.259 227.111 173.911 252.826C174.111 260.054 174.311 267.281 174.511 274.509C174.532 276.122 176.919 275.985 176.93 274.478C176.14 248.688 175.032 222.994 173.786 197.225C173.448 189.923 173.036 182.759 172.592 175.489C172.401 174.852 171.383 174.926 171.467 175.595Z" fill="#D8E5E5"/>
    <path d="M167.234 177.672C166.512 180.665 166.935 184.008 167.02 186.991C167.136 190.079 167.252 193.167 167.368 196.256C167.557 202.677 167.853 209.066 168.042 215.487C168.464 228.085 168.811 240.82 169.233 253.418C169.433 260.645 169.601 267.767 169.801 274.994C169.854 276.714 172.378 276.651 172.326 274.932C171.663 249.567 170.65 224.191 169.393 198.772C169.256 195.227 169.013 191.714 168.876 188.169C168.792 186.344 168.739 184.625 168.548 182.831C168.358 181.037 168.305 179.318 167.796 177.62C167.733 177.407 167.383 177.397 167.234 177.672Z" fill="#D8E5E5"/>
    <path d="M164.167 182.872C164.05 184.41 163.869 185.737 163.858 187.244C163.847 188.751 163.73 190.29 163.751 191.903C163.729 194.917 163.707 197.931 163.686 200.945C163.716 206.835 163.715 212.619 163.957 218.446C164.262 230.269 164.812 242.135 165.467 253.968C165.752 260.708 166.174 267.521 166.672 274.197C166.703 275.46 168.666 275.45 168.496 274.113C166.836 250.435 166.226 226.789 165.478 203.069C165.373 199.63 165.299 196.297 165.088 192.891C165.035 191.171 164.982 189.452 164.961 187.839C164.909 186.119 164.75 184.432 164.591 182.744C164.559 182.638 164.209 182.627 164.167 182.872Z" fill="#D8E5E5"/>
    <path d="M155.081 145C155.081 145 161.11 140.394 168.788 139.743M183.788 145C178.842 140.434 173.504 139.343 168.788 139.743M168.788 1V139.743" stroke="#0D0842"/>
    <path d="M248.584 312.324L239.509 207.898C239.015 202.775 238.855 192.741 243.706 192.266L259.619 190.88C264.47 190.405 269.355 200.108 269.849 205.231L278.105 309.578C278.105 309.578 272.257 305.508 262.941 306.161C253.22 306.841 248.584 312.324 248.584 312.324Z" fill="#E7EFF2"/>
    <path d="M264.302 129.878C260.643 126.062 253.27 123.456 247.339 124.007C242.488 124.483 231.516 130.545 230.563 136.312C230.215 137.151 230.02 138.251 229.942 139.07C229.688 141.26 229.704 143.431 229.595 145.746C229.644 152.258 229.963 158.751 230.417 165.235C231.247 179.022 232.616 192.771 233.446 206.558C234.316 218.985 235.465 231.528 236.74 243.927C237.997 256.055 239.118 268.193 240.239 280.331C240.828 286.805 241.677 293.125 242.671 299.571C242.929 301.318 243.178 302.929 243.571 304.666C243.58 304.801 243.599 305.071 243.609 305.207C243.836 308.448 244.198 311.681 245.36 314.721C245.86 316.044 247.094 316.229 248.378 315.189C248.889 314.746 248.999 312.43 248.961 311.89L239.968 210.581C239.874 209.23 239.77 207.744 239.675 206.394C239.768 201.908 244.075 197.534 251.475 194.708C259.801 191.546 266.522 198.406 268.099 201.553C268.568 204.371 269.046 207.323 269.515 210.141L271.3 229.834C271.319 230.104 271.329 230.239 271.348 230.509C271.707 235.642 272.076 240.91 272.57 246.033C273.424 256.29 274.413 266.536 275.267 276.793C275.808 282.592 276.224 288.535 276.631 294.343C277.056 300.422 277.203 306.384 277.898 312.443C278.203 314.865 281.569 314.494 281.679 312.179C281.715 306.882 281.336 301.479 280.958 296.076C280.589 290.808 280.221 285.54 279.717 280.282C278.853 269.89 277.865 259.644 277.002 249.252C276.148 238.996 275.564 228.721 274.845 218.455C274.703 216.429 274.436 214.547 274.159 212.531C274.692 210.457 274.378 207.9 274.226 205.739C273.912 203.182 273.462 200.635 273.273 197.933C272.693 191.594 272.798 185.343 272.354 178.994C271.465 166.297 269.892 153.512 268.462 140.853C268.11 137.756 267.622 134.668 265.948 132.07C265.496 131.423 265.043 130.776 264.601 130.264C264.456 130.139 264.447 130.004 264.302 129.878Z" fill="#F46041"/>
    <path d="M243.65 205.029C244.134 217.755 246.238 230.367 247.388 242.91C248.024 250.06 248.381 257.093 248.747 264.261C249.104 271.295 249.595 278.319 249.952 285.352C250.384 293.466 250.952 301.571 251.384 309.685C251.46 310.765 253.215 310.642 253.139 309.562C252.282 295.369 251.424 281.177 250.701 266.975C249.88 253.323 249.186 239.526 247.286 225.95C246.254 218.964 245.087 211.987 244.335 205.117C244.297 204.577 243.622 204.624 243.65 205.029Z" fill="#D8E5E5"/>
    <path d="M248.462 198.177C248.177 201.862 248.693 205.355 249.083 208.993C249.464 212.495 249.845 215.998 250.1 219.645C250.872 226.785 251.508 233.934 252.009 241.093C253.263 255.122 254.256 269.305 255.374 283.344C255.951 291.583 256.383 299.697 257.23 307.918C257.296 308.863 258.782 308.76 258.715 307.814C257.974 293.342 256.692 278.908 255.545 264.464C254.426 250.426 253.298 236.252 251.91 222.233C251.491 218.19 251.207 214.138 250.788 210.095C250.379 206.187 250.095 202.135 249.011 198.274C248.983 197.869 248.578 197.898 248.462 198.177Z" fill="#D8E5E5"/>
    <path d="M253.959 197.249C254.836 211.712 256.523 226.118 257.67 240.561C258.808 254.87 259.665 269.062 260.398 283.399C260.84 291.648 261.147 299.907 261.589 308.156C261.664 309.236 263.419 309.113 263.344 308.033C262.004 279.214 260.665 250.396 257.706 221.691C256.859 213.47 255.877 205.259 254.634 197.202C254.471 196.806 253.931 196.844 253.959 197.249Z" fill="#D8E5E5"/>
    <path d="M258.751 197.864C258.871 201.52 259.667 205.13 260.057 208.767C260.447 212.405 260.973 216.033 261.363 219.671C262.125 226.676 262.887 233.681 263.378 240.705C264.497 254.743 265.22 268.945 266.068 283.002C266.491 290.981 267.059 299.085 267.617 307.055C267.702 308.271 269.592 308.138 269.507 306.923C267.376 278.431 266.741 249.971 263.53 221.555C263.111 217.512 262.558 213.479 262.004 209.445C261.46 205.547 260.896 201.379 259.821 197.653C259.504 196.997 258.704 197.189 258.751 197.864Z" fill="#D8E5E5"/>
    <path d="M265.025 200.275C264.866 203.816 265.256 207.453 265.511 211.1C265.757 214.612 266.013 218.259 266.394 221.762C267.02 228.776 267.657 235.926 268.148 242.95C269.257 256.853 270.376 270.891 271.35 284.804C271.624 288.721 271.899 292.639 272.038 296.565C272.18 298.591 272.177 300.492 272.319 302.518C272.461 304.544 272.468 306.58 272.879 308.587C273.052 309.118 273.862 309.061 273.96 308.511C274.398 305.087 273.873 301.459 273.772 298.073C273.526 294.561 273.405 290.904 273.16 287.392C272.668 280.368 272.167 273.209 271.675 266.185C270.547 252.012 269.428 237.974 268.165 223.81C267.891 219.892 267.482 215.985 267.072 212.077C266.663 208.169 266.514 204.107 265.691 200.093C265.662 199.688 265.132 199.861 265.025 200.275Z" fill="#D8E5E5"/>
    <path d="M230.599 168.5C230.599 168.5 238.88 159.794 250.599 159.403M271.599 168.5C264.11 161.359 256.863 159.193 250.599 159.403M250.599 159.403V0" stroke="#0D0842"/>
    <path d="M351.192 313.923L353.276 221.509C353.394 216.964 349.686 212.011 344.932 211.041C342.197 210.476 335.05 210.324 331.86 211.113C326.995 212.429 326.267 216.786 325.354 220.851L323.269 313.264C323.269 313.264 328.487 309.264 337.307 309.341C346.447 309.338 351.192 313.923 351.192 313.923Z" fill="#E7EFF2"/>
    <path d="M323.319 314.832C323.348 313.583 323.352 312.227 323.381 310.978C323.493 308.693 323.472 306.327 323.584 304.041C323.752 300.613 323.813 297.211 323.955 293.676C324.21 286.952 324.333 280.148 324.588 273.424C324.99 261.358 324.886 227.627 325.247 220.877C325.939 209.529 349.004 208.341 352.589 220.099C352.985 221.243 352.594 239.741 352.557 244.154L352.138 263.45C351.851 272.327 351.431 281.123 351.011 289.92C350.788 294.04 350.672 298.133 350.556 302.226C350.413 306.212 350.536 310.359 350.048 314.318C349.886 315.487 351.159 316.527 352.275 316.477C353.47 316.353 354.748 315.527 354.591 314.437C354.175 310.927 354.396 307.259 354.405 303.645C354.414 300.03 354.529 296.389 354.618 292.641C354.822 285.252 355.026 277.864 355.336 270.449C355.709 259.18 356.268 247.752 355.844 236.454L356.284 219.072L357.594 161.397C357.735 157.862 355.83 154.72 353.018 152.932C352.461 152.505 351.93 152.185 351.506 151.838C349.888 150.771 348.083 149.862 346.225 149.193C342.615 147.828 338.605 147.126 334.725 147.408C330.606 147.636 326.803 149.141 325.147 152.938C325.013 153.31 324.773 153.708 324.665 154.186C323.518 156.389 322.98 158.78 322.656 161.118C322.251 163.589 321.953 166.033 321.894 168.532C321.589 173.688 321.497 178.791 321.325 184.027C321.007 194.605 320.795 205.156 320.557 215.602C320.028 236.731 319.631 257.941 319.101 279.071C318.754 290.898 318.3 302.752 318.191 314.632C318.077 317.822 323.311 317.995 323.319 314.832Z" fill="#F6CF3C"/>
    <path d="M350.292 203.055C349.974 202.682 350.028 202.443 349.63 202.202C349.206 201.856 348.701 201.642 348.171 201.322C347.268 200.867 346.26 200.439 345.278 200.118C343.18 199.395 340.869 199.176 338.611 199.17C336.459 199.138 334.173 199.477 332.073 200.109C331.009 200.372 329.999 200.848 329.094 201.298C328.296 201.721 326.94 202.169 326.699 203.019C326.591 203.497 326.883 203.764 327.361 203.871C328.184 204.006 329.116 203.211 329.808 202.814C330.712 202.365 331.643 202.022 332.706 201.759C334.594 201.179 336.667 200.892 338.687 200.845C340.706 200.797 342.698 201.094 344.53 201.657C345.486 201.873 346.468 202.194 347.37 202.648C347.875 202.862 348.246 202.996 348.751 203.21C349.255 203.424 349.574 203.345 350.052 203.453C350.291 203.507 350.451 203.241 350.292 203.055Z" fill="#E7EFF2"/>
    <path d="M352.415 160.532C351.859 159.654 350.93 159.093 350.108 158.506C349.047 157.865 347.879 157.251 346.738 156.743C344.349 155.753 341.801 155.029 339.224 154.65C335.24 154.055 330.349 155.264 327.552 158.101C326.566 159.135 328.157 160.548 329.063 159.647C331.567 156.995 335.767 156.182 339.379 156.644C341.716 156.969 343.92 157.666 346.149 158.469C347.158 158.897 348.167 159.325 349.202 159.859C350.104 160.314 350.926 160.901 351.882 161.116C352.254 161.25 352.626 160.932 352.415 160.532Z" fill="#E7EFF2"/>
    <path d="M347.984 223.382C347.88 233.456 347.856 243.397 347.752 253.47C347.615 266.149 347.026 278.826 346.544 291.477C346.262 298.094 345.954 304.606 345.778 311.197C345.696 312.233 347.397 312.265 347.479 311.228C347.88 299.162 348.255 286.989 348.524 274.843C348.819 262.803 349.22 250.737 349.276 238.643C349.262 233.566 349.247 228.489 348.781 223.411C348.756 222.853 347.959 222.824 347.984 223.382Z" fill="#D8E5E5"/>
    <path d="M343.396 219.888C342.858 222.731 343.169 225.815 343.083 228.659C343.129 231.583 343.149 234.4 343.088 237.351C343.074 243.225 343.086 249.205 342.965 255.106C342.83 266.88 342.483 278.707 341.896 290.481C341.508 297.125 341.253 303.849 340.652 310.545C340.596 311.688 342.535 311.773 342.591 310.63C343.632 287.003 344.566 263.403 344.597 239.8C344.578 236.53 344.533 233.155 344.515 229.885C344.496 226.616 344.77 223.161 344.007 220.076C344.088 219.491 343.504 219.41 343.396 219.888Z" fill="#D8E5E5"/>
    <path d="M334.788 219.759C334.515 222.762 334.588 225.792 334.527 228.742C334.467 231.693 334.433 234.749 334.373 237.7C334.146 243.626 333.919 249.553 333.453 255.426C332.734 267.119 331.695 278.891 331.215 290.639C330.96 297.363 330.811 304.06 330.768 310.732C330.712 311.875 332.625 311.853 332.575 310.737C332.125 298.881 332.978 286.816 333.671 275.016C334.47 263.19 335.402 251.444 335.75 239.617C335.811 236.215 336.005 232.893 335.96 229.517C335.942 226.248 336.003 222.846 335.533 219.575C335.64 219.097 334.896 219.281 334.788 219.759Z" fill="#D8E5E5"/>
    <path d="M339.89 219.4C339.617 222.403 339.69 225.434 339.629 228.384C339.569 231.334 339.535 234.391 339.475 237.341C339.248 243.268 339.021 249.194 338.555 255.067C337.836 266.761 336.798 278.533 336.317 290.28C336.062 297.004 335.913 303.702 335.87 310.373C335.814 311.516 337.727 311.495 337.677 310.378C337.227 298.522 338.08 286.457 338.773 274.657C339.572 262.831 340.504 251.085 340.852 239.258C340.913 235.856 341.107 232.534 341.062 229.158C341.044 225.889 341.105 222.487 340.635 219.216C340.636 218.765 339.892 218.949 339.89 219.4Z" fill="#D8E5E5"/>
    <path d="M329.148 222.96C329.229 233.327 329.496 243.534 329.126 253.899C328.726 265.514 327.874 277.127 327.155 288.82C326.684 296.501 326.214 304.181 325.611 311.781C325.529 312.818 327.362 312.929 327.418 311.786C328.089 298.073 328.999 284.413 329.802 270.78C330.359 260.255 330.916 249.731 330.915 239.232C330.928 233.81 330.915 228.281 329.945 222.989C329.813 222.457 329.149 222.508 329.148 222.96Z" fill="#D8E5E5"/>
    <path d="M321.287 184.5C321.757 183.919 327.448 181.322 334.5 180.5M357 188.5C351.068 180.763 342.012 179.624 334.5 180.5M334.5 0V180.5" stroke="#0D0842"/>
    <path d="M441.963 216.036C441.858 211.44 444.427 207.663 447.864 207.559L456.107 207.287C459.438 207.214 462.27 210.877 462.449 215.335L464.101 278.344L465.819 278.292C466.138 277.04 466.244 275.851 466.287 274.451L462.174 117.557C461.995 111.943 458.665 107.389 454.771 107.514L444.109 107.817C440.216 107.942 437.096 112.578 437.275 118.193L441.388 275.086C441.451 276.455 441.621 277.792 441.971 278.96L443.689 278.908L441.963 216.036Z" fill="#60C697"/>
    <path d="M442.059 216.354C441.954 211.759 444.522 207.982 447.959 207.877L456.202 207.605C459.534 207.533 462.365 211.196 462.545 215.653L464.207 278.313L466.488 278.208L463.815 178.604C463.636 172.99 460.306 168.435 456.413 168.561L445.751 168.863C441.857 168.989 438.737 173.625 438.916 179.239L441.589 278.843L443.87 278.738L442.059 216.354Z" fill="#60C697"/>
    <path d="M464.027 277.326L461.502 180.916C461.333 176.109 458.576 172.308 455.139 172.412L446.896 172.684C443.564 172.757 440.922 176.672 440.984 181.512L443.509 277.921C443.509 277.921 447.149 273.476 453.536 273.182C460.347 272.76 464.027 277.326 464.027 277.326Z" fill="#E7EFF2"/>
    <path d="M459.627 170.026C459.52 173.529 459.869 177.01 459.975 180.449C460.08 183.887 460.461 187.475 460.916 190.924C461.615 197.886 462.239 204.987 462.588 211.938C463.455 226.022 463.621 240.084 463.47 254.242C463.436 262.234 463.159 270.183 462.881 278.132C462.795 280.933 467.039 280.819 467.124 278.017C467.99 249.649 468.049 221.291 465.159 193.123C464.789 189.185 464.281 185.173 463.454 181.257C462.988 179.314 462.447 177.51 461.981 175.568C461.514 173.625 461.08 171.789 460.401 169.91C460.242 169.379 459.574 169.464 459.627 170.026Z" fill="#60C697"/>
    <path d="M438.878 112.739C439.271 112.505 439.557 112.304 439.982 112.177L439.95 112.071C439.557 112.304 439.165 112.537 438.878 112.739C438.804 112.877 438.772 112.77 438.878 112.739Z" fill="#F3B953"/>
    <path d="M440.215 110.256C438.327 111.284 437.181 113.247 436.904 115.412C436.511 117.959 436.33 120.442 436.149 122.926C435.703 128.38 435.394 133.91 435.191 139.407C434.881 150.72 435.133 161.981 435.491 173.209C435.775 184.576 436.377 195.847 436.523 207.14C436.701 218.538 437.091 229.873 437.757 241.356C438.127 247.608 438.422 253.997 439.036 260.29C439.29 263.453 439.682 266.69 439.936 269.853C440.222 273.122 440.433 276.529 441.249 279.639C441.843 282.006 445.089 281.265 445.196 278.919C445.387 276.086 445.017 273.305 444.784 270.598C444.519 267.786 444.393 265.048 444.234 262.203C443.843 256.653 443.452 251.102 443.166 245.519C442.49 234.386 442.026 223.189 441.805 212.035C441.617 200.987 441.216 190.002 440.921 178.986C440.489 167.895 440.088 156.91 440.112 145.798C440.124 139.664 440.38 133.572 440.742 127.449C440.902 124.509 441.274 121.506 441.508 118.428C441.572 117.484 441.604 116.433 441.699 115.595C441.869 114.618 441.689 113.631 442.379 112.846C443.546 111.34 441.817 109.429 440.215 110.256Z" fill="#60C697"/>
    <path d="M459.374 111.687C458.919 110.551 458.07 109.649 457.147 108.884C456.224 108.12 455.27 107.249 454.198 106.76C451.674 105.666 448.799 105.718 446.062 105.844C443.569 106.012 441.33 107.03 439.759 109.12C438.443 110.902 436.841 114.043 438.495 116.092C438.867 116.559 439.673 116.549 440.065 116.316C441.604 115.276 441.467 112.888 442.634 111.382C443.844 109.631 445.637 109.441 447.567 109.325C449.604 109.178 451.779 109.104 453.816 110.114C455.471 111.006 456.955 112.875 459.035 112.483C459.247 112.419 459.438 111.899 459.374 111.687Z" fill="#60C697"/>
    <path d="M450.856 109.497C452.84 108.787 455.216 110.157 456.468 111.633C458.09 113.576 458.493 116.462 458.694 119.063C459.265 125.601 459.518 132.234 459.878 138.835C460.554 152.282 460.879 165.718 460.993 179.218C461.056 182.901 461.013 186.615 461.076 190.298C461.054 192.155 461.138 193.981 461.117 195.838C461.159 196.751 461.233 197.77 461.381 198.651C461.562 199.638 462.06 200.529 462.272 201.623C462.452 202.61 464.033 202.483 464.235 201.613C464.436 200.743 464.776 199.947 464.978 199.077C465.179 198.207 465.212 197.156 465.169 196.243C465.191 194.386 465.106 192.56 465.128 190.703C465.097 187.127 464.96 183.582 464.961 180.111C464.793 172.99 464.656 165.975 464.382 158.885C464.182 151.658 463.876 144.462 463.538 137.16C463.401 133.615 463.158 130.102 462.914 126.589C462.735 123.289 462.555 119.988 462.057 116.783C461.559 113.577 460.467 110.318 457.975 108.173C455.546 106.241 452.512 105.762 449.965 107.681C449.074 108.18 449.689 109.846 450.856 109.497Z" fill="#60C697"/>
    <path d="M463.411 184.971C463.92 183.199 463.56 181.225 463.263 179.463C462.861 177.733 462.182 175.854 461.175 174.421C458.693 170.769 454.874 169.6 450.822 169.194C448.795 168.992 446.769 168.789 444.828 169.255C442.674 169.785 441.082 171.418 439.904 173.275C437.814 176.331 434.715 182.58 438.268 185.564C438.883 186.074 439.933 186.106 440.379 185.279C440.793 184.345 440.984 183.825 441.154 182.849C441.281 182.116 441.483 181.246 441.717 180.482C442.152 178.848 442.895 177.469 443.744 176.058C444.444 174.922 445.24 174.106 446.545 173.83C448.094 173.597 449.77 173.789 451.309 173.907C454.173 174.205 456.496 175.013 458.172 177.518C459.709 179.95 459.963 183.112 461.65 185.268C462.084 185.947 463.103 185.873 463.411 184.971Z" fill="#60C697"/>
    <path d="M459.13 163.351C459.268 162.268 459.385 160.729 458.748 159.763C459.003 159.456 459.152 159.18 459.025 158.755C458.314 156.77 456.299 156.217 454.527 155.707C452.649 155.229 450.761 155.1 448.83 155.216C447.006 155.3 444.756 155.511 443.186 156.445C441.011 157.675 442.018 160.265 442.485 162.207C442.739 163.056 443.662 163.821 444.574 163.779C446.611 163.631 448.818 163.664 450.812 163.761C452.807 163.857 455.045 163.996 456.986 164.687C457.782 165.027 458.96 164.327 459.13 163.351Z" fill="#E7EFF2"/>
    <path d="M444.564 112.423C443.938 113.42 444.033 114.895 443.927 116.084C443.884 117.485 443.81 118.78 443.873 120.149C443.862 122.813 443.914 125.689 444.359 128.332C444.72 130.306 447.542 129.692 447.563 127.834C447.574 125.171 447.129 122.528 446.928 119.927C446.791 118.696 446.727 117.327 446.59 116.096C446.484 114.971 446.421 113.602 445.859 112.498C445.562 111.893 444.862 111.871 444.564 112.423Z" fill="#E7EFF2"/>
    <path d="M449.572 112.542C448.308 116.044 448.594 120.469 449.219 124.099C449.399 125.086 449.972 125.84 450.99 125.766C451.797 125.756 452.699 124.908 452.656 123.995C452.434 122.095 452.18 120.089 452.064 118.157C451.947 116.226 451.831 114.294 451.396 112.458C451.11 111.503 449.911 111.746 449.572 112.542Z" fill="#E7EFF2"/>
    <path d="M454.303 112.512C453.709 114.773 454.048 117.447 454.047 119.761C454.047 120.918 454.184 122.149 454.216 123.412C454.247 124.675 454.247 125.832 454.841 127.042C455.308 127.827 456.602 127.902 457.016 126.969C457.472 125.791 457.398 124.772 457.399 123.615C457.367 122.352 457.335 121.089 457.166 119.752C456.923 117.396 457.04 114.7 456.16 112.535C455.736 111.505 454.579 111.504 454.303 112.512Z" fill="#E7EFF2"/>
    <path d="M455.54 179.927C455.444 183.079 455.761 186.454 455.909 189.648C456.025 192.737 456.247 195.793 456.363 198.882C456.627 205.165 457.029 211.522 457.293 217.805C457.895 230.233 457.934 242.714 458.292 255.099C458.46 262.221 458.597 269.236 458.627 276.283C458.648 277.896 461.067 277.866 461.046 276.252C460.868 263.697 460.553 251.068 459.993 238.395C459.73 232.112 459.328 225.755 459.064 219.472C458.8 213.189 458.536 206.906 458.135 200.549C457.891 197.036 457.648 193.523 457.405 190.01C457.194 186.603 457.056 183.058 456.527 179.747C456.442 179.078 455.487 179.364 455.54 179.927Z" fill="#D8E5E5"/>
    <path d="M451.467 175.595C452.363 201.353 453.259 227.111 453.911 252.826C454.111 260.054 454.311 267.281 454.511 274.509C454.532 276.122 456.919 275.985 456.93 274.478C456.14 248.688 455.032 222.994 453.786 197.225C453.448 189.923 453.036 182.759 452.592 175.489C452.401 174.852 451.383 174.926 451.467 175.595Z" fill="#D8E5E5"/>
    <path d="M447.234 177.672C446.512 180.665 446.935 184.008 447.02 186.991C447.136 190.079 447.252 193.167 447.368 196.256C447.557 202.677 447.853 209.066 448.042 215.487C448.464 228.085 448.811 240.82 449.233 253.418C449.433 260.645 449.601 267.767 449.801 274.994C449.854 276.714 452.378 276.651 452.326 274.932C451.663 249.567 450.65 224.191 449.393 198.772C449.256 195.227 449.013 191.714 448.876 188.169C448.792 186.344 448.739 184.625 448.548 182.831C448.358 181.037 448.305 179.318 447.796 177.62C447.733 177.407 447.383 177.397 447.234 177.672Z" fill="#D8E5E5"/>
    <path d="M444.167 182.872C444.05 184.41 443.869 185.737 443.858 187.244C443.847 188.751 443.73 190.29 443.751 191.903C443.729 194.917 443.707 197.931 443.686 200.945C443.716 206.835 443.715 212.619 443.957 218.446C444.262 230.269 444.812 242.135 445.467 253.968C445.752 260.708 446.174 267.521 446.672 274.197C446.703 275.46 448.666 275.45 448.496 274.113C446.836 250.435 446.226 226.789 445.478 203.069C445.373 199.63 445.299 196.297 445.088 192.891C445.035 191.171 444.982 189.452 444.961 187.839C444.909 186.119 444.75 184.432 444.591 182.744C444.559 182.638 444.209 182.627 444.167 182.872Z" fill="#D8E5E5"/>
    <path d="M435.081 145C435.081 145 441.11 140.394 448.788 139.743M463.788 145C458.842 140.434 453.504 139.343 448.788 139.743M448.788 1V139.743" stroke="#0D0842"/>
    <path d="M528.584 312.324L519.509 207.898C519.015 202.775 518.855 192.741 523.706 192.266L539.619 190.88C544.47 190.405 549.355 200.108 549.849 205.231L558.105 309.578C558.105 309.578 552.257 305.508 542.941 306.161C533.22 306.841 528.584 312.324 528.584 312.324Z" fill="#E7EFF2"/>
    <path d="M544.302 129.878C540.643 126.062 533.27 123.456 527.339 124.007C522.488 124.483 511.516 130.545 510.563 136.312C510.215 137.151 510.02 138.251 509.942 139.07C509.688 141.26 509.704 143.431 509.595 145.746C509.644 152.258 509.963 158.751 510.417 165.235C511.247 179.022 512.616 192.771 513.446 206.558C514.316 218.985 515.465 231.528 516.74 243.927C517.997 256.055 519.118 268.193 520.239 280.331C520.828 286.805 521.677 293.125 522.671 299.571C522.929 301.318 523.178 302.929 523.571 304.666C523.58 304.801 523.599 305.071 523.609 305.207C523.836 308.448 524.198 311.681 525.36 314.721C525.86 316.044 527.094 316.229 528.378 315.189C528.889 314.746 528.999 312.43 528.961 311.89L519.968 210.581C519.874 209.23 519.77 207.744 519.675 206.394C519.768 201.908 524.075 197.534 531.475 194.708C539.801 191.546 546.522 198.406 548.099 201.553C548.568 204.371 549.046 207.323 549.515 210.141L551.3 229.834C551.319 230.104 551.329 230.239 551.348 230.509C551.707 235.642 552.076 240.91 552.57 246.033C553.424 256.29 554.413 266.536 555.267 276.793C555.808 282.592 556.224 288.535 556.631 294.343C557.056 300.422 557.203 306.384 557.898 312.443C558.203 314.865 561.569 314.494 561.679 312.179C561.715 306.882 561.336 301.479 560.958 296.076C560.589 290.808 560.221 285.54 559.717 280.282C558.853 269.89 557.865 259.644 557.002 249.252C556.148 238.996 555.564 228.721 554.845 218.455C554.703 216.429 554.436 214.547 554.159 212.531C554.692 210.457 554.378 207.9 554.226 205.739C553.912 203.182 553.462 200.635 553.273 197.933C552.693 191.594 552.798 185.343 552.354 178.994C551.465 166.297 549.892 153.512 548.462 140.853C548.11 137.756 547.622 134.668 545.948 132.07C545.496 131.423 545.043 130.776 544.601 130.264C544.456 130.139 544.447 130.004 544.302 129.878Z" fill="#F46041"/>
    <path d="M523.65 205.029C524.134 217.755 526.238 230.367 527.388 242.91C528.024 250.06 528.381 257.093 528.747 264.261C529.104 271.295 529.595 278.319 529.952 285.352C530.384 293.466 530.952 301.571 531.384 309.685C531.46 310.765 533.215 310.642 533.139 309.562C532.282 295.369 531.424 281.177 530.701 266.975C529.88 253.323 529.186 239.526 527.286 225.95C526.254 218.964 525.087 211.987 524.335 205.117C524.297 204.577 523.622 204.624 523.65 205.029Z" fill="#D8E5E5"/>
    <path d="M528.462 198.177C528.177 201.862 528.693 205.355 529.083 208.993C529.464 212.495 529.845 215.998 530.1 219.645C530.872 226.785 531.508 233.934 532.009 241.093C533.263 255.122 534.256 269.305 535.374 283.344C535.951 291.583 536.383 299.697 537.23 307.918C537.296 308.863 538.782 308.76 538.715 307.814C537.974 293.342 536.692 278.908 535.545 264.464C534.426 250.426 533.298 236.252 531.91 222.233C531.491 218.19 531.207 214.138 530.788 210.095C530.379 206.187 530.095 202.135 529.011 198.274C528.983 197.869 528.578 197.898 528.462 198.177Z" fill="#D8E5E5"/>
    <path d="M533.959 197.249C534.836 211.712 536.523 226.118 537.67 240.561C538.808 254.87 539.665 269.062 540.398 283.399C540.84 291.648 541.147 299.907 541.589 308.156C541.664 309.236 543.419 309.113 543.344 308.033C542.004 279.214 540.665 250.396 537.706 221.691C536.859 213.47 535.877 205.259 534.634 197.202C534.471 196.806 533.931 196.844 533.959 197.249Z" fill="#D8E5E5"/>
    <path d="M538.751 197.864C538.871 201.52 539.667 205.13 540.057 208.767C540.447 212.405 540.973 216.033 541.363 219.671C542.125 226.676 542.887 233.681 543.378 240.705C544.497 254.743 545.22 268.945 546.068 283.002C546.491 290.981 547.059 299.085 547.617 307.055C547.702 308.271 549.592 308.138 549.507 306.923C547.376 278.431 546.741 249.971 543.53 221.555C543.111 217.512 542.558 213.479 542.004 209.445C541.46 205.547 540.896 201.379 539.821 197.653C539.504 196.997 538.704 197.189 538.751 197.864Z" fill="#D8E5E5"/>
    <path d="M545.025 200.275C544.866 203.816 545.256 207.453 545.511 211.1C545.757 214.612 546.013 218.259 546.394 221.762C547.02 228.776 547.657 235.926 548.148 242.95C549.257 256.853 550.376 270.891 551.35 284.804C551.624 288.721 551.899 292.639 552.038 296.565C552.18 298.591 552.177 300.492 552.319 302.518C552.461 304.544 552.468 306.58 552.879 308.587C553.052 309.118 553.862 309.061 553.96 308.511C554.398 305.087 553.873 301.459 553.772 298.073C553.526 294.561 553.405 290.904 553.16 287.392C552.668 280.368 552.167 273.209 551.675 266.185C550.547 252.012 549.428 237.974 548.165 223.81C547.891 219.892 547.482 215.985 547.072 212.077C546.663 208.169 546.514 204.107 545.691 200.093C545.662 199.688 545.132 199.861 545.025 200.275Z" fill="#D8E5E5"/>
    <path d="M510.599 168.5C510.599 168.5 518.88 159.794 530.599 159.403M551.599 168.5C544.11 161.359 536.863 159.193 530.599 159.403M530.599 159.403V0" stroke="#0D0842"/>
    <path d="M632.192 313.923L634.276 221.509C634.394 216.964 630.686 212.011 625.932 211.041C623.197 210.476 616.05 210.324 612.86 211.113C607.995 212.429 607.267 216.786 606.354 220.851L604.269 313.264C604.269 313.264 609.487 309.264 618.307 309.341C627.447 309.338 632.192 313.923 632.192 313.923Z" fill="#E7EFF2"/>
    <path d="M604.319 314.832C604.348 313.583 604.352 312.227 604.381 310.978C604.493 308.693 604.472 306.327 604.584 304.041C604.752 300.613 604.813 297.211 604.955 293.676C605.21 286.952 605.333 280.148 605.588 273.424C605.99 261.358 605.886 227.627 606.247 220.877C606.939 209.529 630.004 208.341 633.589 220.099C633.985 221.243 633.594 239.741 633.557 244.154L633.138 263.45C632.851 272.327 632.431 281.123 632.011 289.92C631.788 294.04 631.672 298.133 631.556 302.226C631.413 306.212 631.536 310.359 631.048 314.318C630.886 315.487 632.159 316.527 633.275 316.477C634.47 316.353 635.748 315.527 635.591 314.437C635.175 310.927 635.396 307.259 635.405 303.645C635.414 300.03 635.529 296.389 635.618 292.641C635.822 285.252 636.026 277.864 636.336 270.449C636.709 259.18 637.268 247.752 636.844 236.454L637.284 219.072L638.594 161.397C638.735 157.862 636.83 154.72 634.018 152.932C633.461 152.505 632.93 152.185 632.506 151.838C630.888 150.771 629.083 149.862 627.225 149.193C623.615 147.828 619.605 147.126 615.725 147.408C611.606 147.636 607.803 149.141 606.147 152.938C606.013 153.31 605.773 153.708 605.665 154.186C604.518 156.389 603.98 158.78 603.656 161.118C603.251 163.589 602.953 166.033 602.894 168.532C602.589 173.688 602.497 178.791 602.325 184.027C602.007 194.605 601.795 205.156 601.557 215.602C601.028 236.731 600.631 257.941 600.101 279.071C599.754 290.898 599.3 302.752 599.191 314.632C599.077 317.822 604.311 317.995 604.319 314.832Z" fill="#F6CF3C"/>
    <path d="M631.292 203.055C630.974 202.682 631.028 202.443 630.63 202.202C630.206 201.856 629.701 201.642 629.171 201.322C628.268 200.867 627.26 200.439 626.278 200.118C624.18 199.395 621.869 199.176 619.611 199.17C617.459 199.138 615.173 199.477 613.073 200.109C612.009 200.372 610.999 200.848 610.094 201.298C609.296 201.721 607.94 202.169 607.699 203.019C607.591 203.497 607.883 203.764 608.361 203.871C609.184 204.006 610.116 203.211 610.808 202.814C611.712 202.365 612.643 202.022 613.706 201.759C615.594 201.179 617.667 200.892 619.687 200.845C621.706 200.797 623.698 201.094 625.53 201.657C626.486 201.873 627.468 202.194 628.37 202.648C628.875 202.862 629.246 202.996 629.751 203.21C630.255 203.424 630.574 203.345 631.052 203.453C631.291 203.507 631.451 203.241 631.292 203.055Z" fill="#E7EFF2"/>
    <path d="M633.415 160.532C632.859 159.654 631.93 159.093 631.108 158.506C630.047 157.865 628.879 157.251 627.738 156.743C625.349 155.753 622.801 155.029 620.224 154.65C616.24 154.055 611.349 155.264 608.552 158.101C607.566 159.135 609.157 160.548 610.063 159.647C612.567 156.995 616.767 156.182 620.379 156.644C622.716 156.969 624.92 157.666 627.149 158.469C628.158 158.897 629.167 159.325 630.202 159.859C631.104 160.314 631.926 160.901 632.882 161.116C633.254 161.25 633.626 160.932 633.415 160.532Z" fill="#E7EFF2"/>
    <path d="M628.984 223.382C628.88 233.456 628.856 243.397 628.752 253.47C628.615 266.149 628.026 278.826 627.544 291.477C627.262 298.094 626.954 304.606 626.778 311.197C626.696 312.233 628.397 312.265 628.479 311.228C628.88 299.162 629.255 286.989 629.524 274.843C629.819 262.803 630.22 250.737 630.276 238.643C630.262 233.566 630.247 228.489 629.781 223.411C629.756 222.853 628.959 222.824 628.984 223.382Z" fill="#D8E5E5"/>
    <path d="M624.396 219.888C623.858 222.731 624.169 225.815 624.083 228.659C624.129 231.583 624.149 234.4 624.088 237.351C624.074 243.225 624.086 249.205 623.965 255.106C623.83 266.88 623.483 278.707 622.896 290.481C622.508 297.125 622.253 303.849 621.652 310.545C621.596 311.688 623.535 311.773 623.591 310.63C624.632 287.003 625.566 263.403 625.597 239.8C625.578 236.53 625.533 233.155 625.515 229.885C625.496 226.616 625.77 223.161 625.007 220.076C625.088 219.491 624.504 219.41 624.396 219.888Z" fill="#D8E5E5"/>
    <path d="M615.788 219.759C615.515 222.762 615.588 225.792 615.527 228.742C615.467 231.693 615.433 234.749 615.373 237.7C615.146 243.626 614.919 249.553 614.453 255.426C613.734 267.119 612.695 278.891 612.215 290.639C611.96 297.363 611.811 304.06 611.768 310.732C611.712 311.875 613.625 311.853 613.575 310.737C613.125 298.881 613.978 286.816 614.671 275.016C615.47 263.19 616.402 251.444 616.75 239.617C616.811 236.215 617.005 232.893 616.96 229.517C616.942 226.248 617.003 222.846 616.533 219.575C616.64 219.097 615.896 219.281 615.788 219.759Z" fill="#D8E5E5"/>
    <path d="M620.89 219.4C620.617 222.403 620.69 225.434 620.629 228.384C620.569 231.334 620.535 234.391 620.475 237.341C620.248 243.268 620.021 249.194 619.555 255.067C618.836 266.761 617.798 278.533 617.317 290.28C617.062 297.004 616.913 303.702 616.87 310.373C616.814 311.516 618.727 311.495 618.677 310.378C618.227 298.522 619.08 286.457 619.773 274.657C620.572 262.831 621.504 251.085 621.852 239.258C621.913 235.856 622.107 232.534 622.062 229.158C622.044 225.889 622.105 222.487 621.635 219.216C621.636 218.765 620.892 218.949 620.89 219.4Z" fill="#D8E5E5"/>
    <path d="M610.148 222.96C610.229 233.327 610.496 243.534 610.126 253.899C609.726 265.514 608.874 277.127 608.155 288.82C607.684 296.501 607.214 304.181 606.611 311.781C606.529 312.818 608.362 312.929 608.418 311.786C609.089 298.073 609.999 284.413 610.802 270.78C611.359 260.255 611.916 249.731 611.915 239.232C611.928 233.81 611.915 228.281 610.945 222.989C610.813 222.457 610.149 222.508 610.148 222.96Z" fill="#D8E5E5"/>
    <path d="M602.287 184.5C602.757 183.919 608.448 181.322 615.5 180.5M638 188.5C632.068 180.763 623.012 179.624 615.5 180.5M615.5 0V180.5" stroke="#0D0842"/>
    <path d="M722.963 216.036C722.858 211.44 725.427 207.663 728.864 207.559L737.107 207.287C740.438 207.214 743.27 210.877 743.449 215.335L745.101 278.344L746.819 278.292C747.138 277.04 747.244 275.851 747.287 274.451L743.174 117.557C742.995 111.943 739.665 107.389 735.771 107.514L725.109 107.817C721.216 107.942 718.096 112.578 718.275 118.193L722.388 275.086C722.451 276.455 722.621 277.792 722.971 278.96L724.689 278.908L722.963 216.036Z" fill="#60C697"/>
    <path d="M723.059 216.354C722.954 211.759 725.522 207.982 728.959 207.877L737.202 207.605C740.534 207.533 743.365 211.196 743.545 215.653L745.207 278.313L747.488 278.208L744.815 178.604C744.636 172.99 741.306 168.435 737.413 168.561L726.751 168.863C722.857 168.989 719.737 173.625 719.916 179.239L722.589 278.843L724.87 278.738L723.059 216.354Z" fill="#60C697"/>
    <path d="M745.027 277.326L742.502 180.916C742.333 176.109 739.576 172.308 736.139 172.412L727.896 172.684C724.564 172.757 721.922 176.672 721.984 181.512L724.509 277.921C724.509 277.921 728.149 273.476 734.536 273.182C741.347 272.76 745.027 277.326 745.027 277.326Z" fill="#E7EFF2"/>
    <path d="M740.627 170.026C740.52 173.529 740.869 177.01 740.975 180.449C741.08 183.887 741.461 187.475 741.916 190.924C742.615 197.886 743.239 204.987 743.588 211.938C744.455 226.022 744.621 240.084 744.47 254.242C744.436 262.234 744.159 270.183 743.881 278.132C743.795 280.933 748.039 280.819 748.124 278.017C748.99 249.649 749.049 221.291 746.159 193.123C745.789 189.185 745.281 185.173 744.454 181.257C743.988 179.314 743.447 177.51 742.981 175.568C742.514 173.625 742.08 171.789 741.401 169.91C741.242 169.379 740.574 169.464 740.627 170.026Z" fill="#60C697"/>
    <path d="M719.878 112.739C720.271 112.505 720.557 112.304 720.982 112.177L720.95 112.071C720.557 112.304 720.165 112.537 719.878 112.739C719.804 112.877 719.772 112.77 719.878 112.739Z" fill="#F3B953"/>
    <path d="M721.215 110.256C719.327 111.284 718.181 113.247 717.904 115.412C717.511 117.959 717.33 120.442 717.149 122.926C716.703 128.38 716.394 133.91 716.191 139.407C715.881 150.72 716.133 161.981 716.491 173.209C716.775 184.576 717.377 195.847 717.523 207.14C717.701 218.538 718.091 229.873 718.757 241.356C719.127 247.608 719.422 253.997 720.036 260.29C720.29 263.453 720.682 266.69 720.936 269.853C721.222 273.122 721.433 276.529 722.249 279.639C722.843 282.006 726.089 281.265 726.196 278.919C726.387 276.086 726.017 273.305 725.784 270.598C725.519 267.786 725.393 265.048 725.234 262.203C724.843 256.653 724.452 251.102 724.166 245.519C723.49 234.386 723.026 223.189 722.805 212.035C722.617 200.987 722.216 190.002 721.921 178.986C721.489 167.895 721.088 156.91 721.112 145.798C721.124 139.664 721.38 133.572 721.742 127.449C721.902 124.509 722.274 121.506 722.508 118.428C722.572 117.484 722.604 116.433 722.699 115.595C722.869 114.618 722.689 113.631 723.379 112.846C724.546 111.34 722.817 109.429 721.215 110.256Z" fill="#60C697"/>
    <path d="M740.374 111.687C739.919 110.551 739.07 109.649 738.147 108.884C737.224 108.12 736.27 107.249 735.198 106.76C732.674 105.666 729.799 105.718 727.062 105.844C724.569 106.012 722.33 107.03 720.759 109.12C719.443 110.902 717.841 114.043 719.495 116.092C719.867 116.559 720.673 116.549 721.065 116.316C722.604 115.276 722.467 112.888 723.634 111.382C724.844 109.631 726.637 109.441 728.567 109.325C730.604 109.178 732.779 109.104 734.816 110.114C736.471 111.006 737.955 112.875 740.035 112.483C740.247 112.419 740.438 111.899 740.374 111.687Z" fill="#60C697"/>
    <path d="M731.856 109.497C733.84 108.787 736.216 110.157 737.468 111.633C739.09 113.576 739.493 116.462 739.694 119.063C740.265 125.601 740.518 132.234 740.878 138.835C741.554 152.282 741.879 165.718 741.993 179.218C742.056 182.901 742.013 186.615 742.076 190.298C742.054 192.155 742.138 193.981 742.117 195.838C742.159 196.751 742.233 197.77 742.381 198.651C742.562 199.638 743.06 200.529 743.272 201.623C743.452 202.61 745.033 202.483 745.235 201.613C745.436 200.743 745.776 199.947 745.978 199.077C746.179 198.207 746.212 197.156 746.169 196.243C746.191 194.386 746.106 192.56 746.128 190.703C746.097 187.127 745.96 183.582 745.961 180.111C745.793 172.99 745.656 165.975 745.382 158.885C745.182 151.658 744.876 144.462 744.538 137.16C744.401 133.615 744.158 130.102 743.914 126.589C743.735 123.289 743.555 119.988 743.057 116.783C742.559 113.577 741.467 110.318 738.975 108.173C736.546 106.241 733.512 105.762 730.965 107.681C730.074 108.18 730.689 109.846 731.856 109.497Z" fill="#60C697"/>
    <path d="M745.32 182.198C745.487 180.361 744.76 178.49 744.137 176.816C743.415 175.193 742.394 173.476 741.134 172.259C738.008 169.14 734.037 168.713 729.981 169.079C727.953 169.263 725.925 169.446 724.106 170.27C722.091 171.196 720.836 173.101 720.029 175.147C718.553 178.542 716.688 185.264 720.741 187.524C721.441 187.908 722.479 187.742 722.76 186.845C722.991 185.85 723.08 185.303 723.063 184.312C723.05 183.569 723.084 182.677 723.169 181.882C723.288 180.195 723.758 178.701 724.325 177.155C724.799 175.908 725.426 174.955 726.656 174.439C728.133 173.918 729.815 173.79 731.348 173.615C734.217 173.368 736.651 173.723 738.769 175.867C740.738 177.964 741.584 181.022 743.647 182.821C744.202 183.406 745.188 183.141 745.32 182.198Z" fill="#60C697"/>
    <path d="M740.13 163.351C740.268 162.268 740.385 160.729 739.748 159.763C740.003 159.456 740.152 159.18 740.025 158.755C739.314 156.77 737.299 156.217 735.527 155.707C733.649 155.229 731.761 155.1 729.83 155.216C728.006 155.3 725.756 155.511 724.186 156.445C722.011 157.675 723.018 160.265 723.485 162.207C723.739 163.056 724.662 163.821 725.574 163.779C727.611 163.631 729.818 163.664 731.812 163.761C733.807 163.857 736.045 163.996 737.986 164.687C738.782 165.027 739.96 164.327 740.13 163.351Z" fill="#E7EFF2"/>
    <path d="M725.564 112.423C724.938 113.42 725.033 114.895 724.927 116.084C724.884 117.485 724.81 118.78 724.873 120.149C724.862 122.813 724.914 125.689 725.359 128.332C725.72 130.306 728.542 129.692 728.563 127.834C728.574 125.171 728.129 122.528 727.928 119.927C727.791 118.696 727.727 117.327 727.59 116.096C727.484 114.971 727.421 113.602 726.859 112.498C726.562 111.893 725.862 111.871 725.564 112.423Z" fill="#E7EFF2"/>
    <path d="M730.572 112.542C729.308 116.044 729.594 120.469 730.219 124.099C730.399 125.086 730.972 125.84 731.99 125.766C732.797 125.756 733.699 124.908 733.656 123.995C733.434 122.095 733.18 120.089 733.064 118.157C732.947 116.226 732.831 114.294 732.396 112.458C732.11 111.503 730.911 111.746 730.572 112.542Z" fill="#E7EFF2"/>
    <path d="M735.303 112.512C734.709 114.773 735.048 117.447 735.047 119.761C735.047 120.918 735.184 122.149 735.216 123.412C735.247 124.675 735.247 125.832 735.841 127.042C736.308 127.827 737.602 127.902 738.016 126.969C738.472 125.791 738.398 124.772 738.399 123.615C738.367 122.352 738.335 121.089 738.166 119.752C737.923 117.396 738.04 114.7 737.16 112.535C736.736 111.505 735.579 111.504 735.303 112.512Z" fill="#E7EFF2"/>
    <path d="M736.54 179.927C736.444 183.079 736.761 186.454 736.909 189.648C737.025 192.737 737.247 195.793 737.363 198.882C737.627 205.165 738.029 211.522 738.293 217.805C738.895 230.233 738.934 242.714 739.292 255.099C739.46 262.221 739.597 269.236 739.627 276.283C739.648 277.896 742.067 277.866 742.046 276.252C741.868 263.697 741.553 251.068 740.993 238.395C740.73 232.112 740.328 225.755 740.064 219.472C739.8 213.189 739.536 206.906 739.135 200.549C738.891 197.036 738.648 193.523 738.405 190.01C738.194 186.603 738.056 183.058 737.527 179.747C737.442 179.078 736.487 179.364 736.54 179.927Z" fill="#D8E5E5"/>
    <path d="M732.467 175.595C733.363 201.353 734.259 227.111 734.911 252.826C735.111 260.054 735.311 267.281 735.511 274.509C735.532 276.122 737.919 275.985 737.93 274.478C737.14 248.688 736.032 222.994 734.786 197.225C734.448 189.923 734.036 182.759 733.592 175.489C733.401 174.852 732.383 174.926 732.467 175.595Z" fill="#D8E5E5"/>
    <path d="M728.234 177.672C727.512 180.665 727.935 184.008 728.02 186.991C728.136 190.079 728.252 193.167 728.368 196.256C728.557 202.677 728.853 209.066 729.042 215.487C729.464 228.085 729.811 240.82 730.233 253.418C730.433 260.645 730.601 267.767 730.801 274.994C730.854 276.714 733.378 276.651 733.326 274.932C732.663 249.567 731.65 224.191 730.393 198.772C730.256 195.227 730.013 191.714 729.876 188.169C729.792 186.344 729.739 184.625 729.548 182.831C729.358 181.037 729.305 179.318 728.796 177.62C728.733 177.407 728.383 177.397 728.234 177.672Z" fill="#D8E5E5"/>
    <path d="M725.167 182.872C725.05 184.41 724.869 185.737 724.858 187.244C724.847 188.751 724.73 190.29 724.751 191.903C724.729 194.917 724.707 197.931 724.686 200.945C724.716 206.835 724.715 212.619 724.957 218.446C725.262 230.269 725.812 242.135 726.467 253.968C726.752 260.708 727.174 267.521 727.672 274.197C727.703 275.46 729.666 275.45 729.496 274.113C727.836 250.435 727.226 226.789 726.478 203.069C726.373 199.63 726.299 196.297 726.088 192.891C726.035 191.171 725.982 189.452 725.961 187.839C725.909 186.119 725.75 184.432 725.591 182.744C725.559 182.638 725.209 182.627 725.167 182.872Z" fill="#D8E5E5"/>
    <path d="M716.081 145C716.081 145 722.11 140.394 729.788 139.743M744.788 145C739.842 140.434 734.504 139.343 729.788 139.743M729.788 1V139.743" stroke="#0D0842"/>
    <path d="M809.584 312.324L800.509 207.898C800.015 202.775 799.855 192.741 804.706 192.266L820.619 190.88C825.47 190.405 830.355 200.108 830.849 205.231L839.104 309.578C839.104 309.578 833.257 305.508 823.941 306.161C814.22 306.841 809.584 312.324 809.584 312.324Z" fill="#E7EFF2"/>
    <path d="M825.302 129.878C821.643 126.062 814.27 123.456 808.339 124.007C803.488 124.483 792.516 130.545 791.563 136.312C791.215 137.151 791.02 138.251 790.942 139.07C790.688 141.26 790.704 143.431 790.595 145.746C790.644 152.258 790.963 158.751 791.417 165.235C792.247 179.022 793.616 192.771 794.446 206.558C795.316 218.985 796.465 231.528 797.74 243.927C798.997 256.055 800.118 268.193 801.239 280.331C801.828 286.805 802.677 293.125 803.671 299.571C803.929 301.318 804.178 302.929 804.571 304.666C804.58 304.801 804.599 305.071 804.609 305.207C804.836 308.448 805.198 311.681 806.36 314.721C806.86 316.044 808.094 316.229 809.378 315.189C809.889 314.746 809.999 312.43 809.961 311.89L800.968 210.581C800.874 209.23 800.77 207.744 800.675 206.394C800.768 201.908 805.075 197.534 812.475 194.708C820.801 191.546 827.522 198.406 829.099 201.553C829.568 204.371 830.046 207.323 830.515 210.141L832.3 229.834C832.319 230.104 832.329 230.239 832.348 230.509C832.707 235.642 833.076 240.91 833.57 246.033C834.424 256.29 835.413 266.536 836.267 276.793C836.808 282.592 837.224 288.535 837.631 294.343C838.056 300.422 838.203 306.384 838.898 312.443C839.203 314.865 842.569 314.494 842.679 312.179C842.715 306.882 842.336 301.479 841.958 296.076C841.589 290.808 841.221 285.54 840.717 280.282C839.853 269.89 838.865 259.644 838.002 249.252C837.148 238.996 836.564 228.721 835.845 218.455C835.703 216.429 835.436 214.547 835.159 212.531C835.692 210.457 835.378 207.9 835.226 205.739C834.912 203.182 834.462 200.635 834.273 197.933C833.693 191.594 833.798 185.343 833.354 178.994C832.465 166.297 830.892 153.512 829.462 140.853C829.11 137.756 828.622 134.668 826.948 132.07C826.496 131.423 826.043 130.776 825.601 130.264C825.456 130.139 825.447 130.004 825.302 129.878Z" fill="#F46041"/>
    <path d="M804.65 205.029C805.134 217.755 807.238 230.367 808.388 242.91C809.024 250.06 809.381 257.093 809.747 264.261C810.104 271.295 810.595 278.319 810.952 285.352C811.384 293.466 811.952 301.571 812.384 309.685C812.46 310.765 814.215 310.642 814.139 309.562C813.282 295.369 812.424 281.177 811.701 266.975C810.88 253.323 810.186 239.526 808.286 225.95C807.254 218.964 806.087 211.987 805.335 205.117C805.297 204.577 804.622 204.624 804.65 205.029Z" fill="#D8E5E5"/>
    <path d="M809.462 198.177C809.177 201.862 809.693 205.355 810.083 208.993C810.464 212.495 810.845 215.998 811.1 219.645C811.872 226.785 812.508 233.934 813.009 241.093C814.263 255.122 815.256 269.305 816.374 283.344C816.951 291.583 817.383 299.697 818.23 307.918C818.296 308.863 819.782 308.76 819.715 307.814C818.974 293.342 817.692 278.908 816.545 264.464C815.426 250.426 814.298 236.252 812.91 222.233C812.491 218.19 812.207 214.138 811.788 210.095C811.379 206.187 811.095 202.135 810.011 198.274C809.983 197.869 809.578 197.898 809.462 198.177Z" fill="#D8E5E5"/>
    <path d="M814.959 197.249C815.836 211.712 817.523 226.118 818.67 240.561C819.808 254.87 820.665 269.062 821.398 283.399C821.84 291.648 822.147 299.907 822.589 308.156C822.664 309.236 824.419 309.113 824.344 308.033C823.004 279.214 821.665 250.396 818.706 221.691C817.859 213.47 816.877 205.259 815.634 197.202C815.471 196.806 814.931 196.844 814.959 197.249Z" fill="#D8E5E5"/>
    <path d="M819.751 197.864C819.871 201.52 820.667 205.13 821.057 208.767C821.447 212.405 821.973 216.033 822.363 219.671C823.125 226.676 823.887 233.681 824.378 240.705C825.497 254.743 826.22 268.945 827.068 283.002C827.491 290.981 828.059 299.085 828.617 307.055C828.702 308.271 830.592 308.138 830.507 306.923C828.376 278.431 827.741 249.971 824.53 221.555C824.111 217.512 823.558 213.479 823.004 209.445C822.46 205.547 821.896 201.379 820.821 197.653C820.504 196.997 819.704 197.189 819.751 197.864Z" fill="#D8E5E5"/>
    <path d="M826.025 200.275C825.866 203.816 826.256 207.453 826.511 211.1C826.757 214.612 827.013 218.259 827.394 221.762C828.02 228.776 828.657 235.926 829.148 242.95C830.257 256.853 831.376 270.891 832.35 284.804C832.624 288.721 832.899 292.639 833.038 296.565C833.18 298.591 833.177 300.492 833.319 302.518C833.461 304.544 833.468 306.58 833.879 308.587C834.052 309.118 834.862 309.061 834.96 308.511C835.398 305.087 834.873 301.459 834.772 298.073C834.526 294.561 834.405 290.904 834.16 287.392C833.668 280.368 833.167 273.209 832.675 266.185C831.547 252.012 830.428 237.974 829.165 223.81C828.891 219.892 828.482 215.985 828.072 212.077C827.663 208.169 827.514 204.107 826.691 200.093C826.662 199.688 826.132 199.861 826.025 200.275Z" fill="#D8E5E5"/>
    <path d="M791.599 168.5C791.599 168.5 799.88 159.794 811.599 159.403M832.599 168.5C825.11 161.359 817.863 159.193 811.599 159.403M811.599 159.403V0" stroke="#0D0842"/>
</svg>